<svg xmlns="http://www.w3.org/2000/svg" xmlns:xlink="http://www.w3.org/1999/xlink" preserveAspectRatio="xMidYMid" width="16" height="16" viewBox="0 0 16 16">
  <defs>
    <style>
      .cls-1 {
        fill: #c4c4c4;
        fill-rule: evenodd;
      }
    </style>
  </defs>
  <path d="M14.000,10.000 L10.000,10.000 L10.000,14.000 C10.000,15.105 9.105,16.000 8.000,16.000 C6.895,16.000 6.000,15.105 6.000,14.000 L6.000,10.000 L2.000,10.000 C0.895,10.000 -0.000,9.105 -0.000,8.000 C-0.000,6.895 0.895,6.000 2.000,6.000 L6.000,6.000 L6.000,2.000 C6.000,0.895 6.895,0.000 8.000,0.000 C9.105,0.000 10.000,0.895 10.000,2.000 L10.000,6.000 L14.000,6.000 C15.105,6.000 16.000,6.895 16.000,8.000 C16.000,9.105 15.105,10.000 14.000,10.000 Z" class="cls-1"/>
</svg>
